<?xml version="1.0" encoding="UTF-8"?>
<svg id="Layer_2" data-name="Layer 2" xmlns="http://www.w3.org/2000/svg" viewBox="0 0 86.51 85.82">
  <defs>
    <style>
      .cls-1 {
        fill: #ffab09;
        stroke-width: 0px;
      }
    </style>
  </defs>
  <g id="Layer_1-2" data-name="Layer 1">
    <g>
      <circle class="cls-1" cx="43.4" cy="43.63" r="26.16"/>
      <path class="cls-1" d="M42.11.74l-5.28,9.15c-.57.99.14,2.23,1.29,2.23h10.56c1.14,0,1.86-1.24,1.29-2.23L44.69.74c-.57-.99-2-.99-2.57,0Z"/>
      <path class="cls-1" d="M65.68,6.96l-9.41,4.8c-1.02.52-1.09,1.95-.13,2.57l8.86,5.75c.96.62,2.23-.03,2.29-1.17l.55-10.55c.06-1.14-1.14-1.92-2.16-1.4Z"/>
      <path class="cls-1" d="M82.05,25.01l-10.51-1.1c-1.14-.12-1.98,1.04-1.51,2.08l4.3,9.65c.47,1.05,1.89,1.19,2.56.27l6.21-8.55c.67-.93.09-2.23-1.05-2.35Z"/>
      <path class="cls-1" d="M85.96,49.07l-8.21-6.65c-.89-.72-2.22-.21-2.4.92l-1.65,10.43c-.18,1.13.93,2.03,2,1.62l9.86-3.79c1.07-.41,1.29-1.82.4-2.54Z"/>
      <path class="cls-1" d="M76.13,71.37l-3.26-10.05c-.35-1.09-1.75-1.39-2.52-.54l-7.07,7.85c-.77.85-.32,2.21.8,2.45l10.33,2.2c1.12.24,2.08-.82,1.72-1.91Z"/>
      <path class="cls-1" d="M55.74,84.72l2.73-10.2c.3-1.1-.72-2.12-1.82-1.82l-10.2,2.73c-1.1.3-1.47,1.68-.67,2.49l7.47,7.47c.81.81,2.19.44,2.49-.67Z"/>
      <path class="cls-1" d="M31.37,84.81l7.85-7.07c.85-.77.55-2.16-.54-2.52l-10.05-3.26c-1.09-.35-2.15.6-1.91,1.72l2.2,10.33c.24,1.12,1.6,1.56,2.45.8Z"/>
      <path class="cls-1" d="M10.88,71.62l10.43-1.65c1.13-.18,1.64-1.51.92-2.4l-6.65-8.21c-.72-.89-2.13-.67-2.54.4l-3.79,9.86c-.41,1.07.49,2.18,1.62,2Z"/>
      <path class="cls-1" d="M.88,49.39l9.65,4.3c1.05.47,2.2-.38,2.08-1.51l-1.1-10.51c-.12-1.14-1.43-1.72-2.35-1.05L.61,46.83c-.93.67-.78,2.09.27,2.56Z"/>
      <path class="cls-1" d="M4.6,25.31l5.75,8.86c.62.96,2.05.88,2.57-.13l4.8-9.41c.52-1.02-.26-2.22-1.4-2.16l-10.55.55c-1.14.06-1.79,1.33-1.17,2.29Z"/>
      <path class="cls-1" d="M19.8,7.13v10.56c0,1.14,1.24,1.86,2.23,1.29l9.15-5.28c.99-.57.99-2,0-2.57l-9.15-5.28c-.99-.57-2.23.14-2.23,1.29Z"/>
    </g>
  </g>
</svg>