<?xml version="1.0" encoding="UTF-8"?>
<svg id="Layer_2" data-name="Layer 2" xmlns="http://www.w3.org/2000/svg" viewBox="0 0 39.66 39.15">
  <defs>
    <style>
      .cls-1 {
        fill: #3aa2fe;
        stroke-width: 0px;
      }
    </style>
  </defs>
  <g id="Layer_1-2" data-name="Layer 1">
    <path class="cls-1" d="M19.83,0C8.88,0,0,8.88,0,19.83c0,9.41,6.55,17.29,15.34,19.32l-.05-.6v-5.3s-5.76,1.01-6.7-2.49c-1.01-2.73-2.26-2.65-2.26-2.65l-.62-.93s1.56-1.64,4.79,2.96c2.38,1.64,4.79.31,4.79.31,0,0-.08-2.1,1.01-2.41-6.93-1.25-11.06-6.15-6.85-14.56-1.01-2.34-.62-4.36.31-5.22.93-.86,5.3,1.95,5.3,1.95,0,0,6-1.4,9.27.08,1.4-1.4,3.74-2.51,5.53-2.19.89.89.93,4.76.39,5.54,2.8,4.67,2.73,13.4-6.85,14.33,1.25.49,1.17,2.1,1.25,2.65.05.38.03,5.41.02,8.46,8.62-2.16,15-9.95,15-19.23C39.66,8.88,30.78,0,19.83,0Z"/>
  </g>
</svg>