<?xml version="1.0" encoding="UTF-8"?>
<svg id="Layer_2" data-name="Layer 2" xmlns="http://www.w3.org/2000/svg" viewBox="0 0 57.78 39.88">
  <defs>
    <style>
      .cls-1 {
        fill: #6899fb;
        stroke-width: 0px;
      }
    </style>
  </defs>
  <g id="Layer_1-2" data-name="Layer 1">
    <g>
      <g>
        <path class="cls-1" d="M47.97,18.62c-.18.02-.36.03-.55.03-.44,0-.85-.05-1.23-.13H6.91c-.83,0-1.5.67-1.5,1.5s.67,1.5,1.5,1.5h40.52c.83,0,1.5-.67,1.5-1.5,0-.64-.4-1.18-.96-1.4Z"/>
        <g>
          <path class="cls-1" d="M48.69,5.08c-4.05,0-7.34,3.29-7.34,7.34s3.29,7.34,7.34,7.34,7.34-3.29,7.34-7.34-3.29-7.34-7.34-7.34ZM48.72,18.17c-7.74,0-7.72-12,0-12s7.72,12,0,12Z"/>
          <path class="cls-1" d="M48.69,3.33c-5.01,0-9.09,4.08-9.09,9.09s4.08,9.09,9.09,9.09,9.09-4.08,9.09-9.09-4.08-9.09-9.09-9.09ZM48.72,18.17c-7.74,0-7.72-12,0-12s7.72,12,0,12Z"/>
        </g>
      </g>
      <g>
        <path class="cls-1" d="M30.47,12.54c-.13.02-.26.03-.39.03-.31,0-.61-.05-.88-.13H1.07c-.59,0-1.07.67-1.07,1.5s.48,1.5,1.07,1.5h29.01c.59,0,1.07-.67,1.07-1.5,0-.64-.29-1.18-.69-1.4Z"/>
        <g>
          <path class="cls-1" d="M30.32,1.48c-3.44,0-6.23,2.79-6.23,6.23s2.79,6.23,6.23,6.23,6.23-2.79,6.23-6.23-2.79-6.23-6.23-6.23ZM30.35,12.6c-6.57,0-6.56-10.19,0-10.19s6.56,10.19,0,10.19Z"/>
          <path class="cls-1" d="M30.32,0c-4.26,0-7.72,3.46-7.72,7.72s3.46,7.72,7.72,7.72,7.72-3.46,7.72-7.72-3.46-7.72-7.72-7.72ZM30.35,12.6c-6.57,0-6.56-10.19,0-10.19s6.56,10.19,0,10.19Z"/>
        </g>
      </g>
      <g>
        <path class="cls-1" d="M30.47,27.34c-.13-.02-.26-.03-.39-.03-.31,0-.61.05-.88.13H1.07c-.59,0-1.07-.67-1.07-1.5s.48-1.5,1.07-1.5h29.01c.59,0,1.07.67,1.07,1.5,0,.64-.29,1.18-.69,1.4Z"/>
        <g>
          <path class="cls-1" d="M36.56,32.16c0-3.44-2.79-6.23-6.23-6.23s-6.23,2.79-6.23,6.23,2.79,6.23,6.23,6.23,6.23-2.79,6.23-6.23ZM30.35,37.47c-6.56,0-6.57-10.19,0-10.19s6.57,10.19,0,10.19Z"/>
          <path class="cls-1" d="M38.04,32.16c0-4.26-3.46-7.72-7.72-7.72s-7.72,3.46-7.72,7.72,3.46,7.72,7.72,7.72,7.72-3.46,7.72-7.72ZM30.35,37.47c-6.56,0-6.57-10.19,0-10.19s6.57,10.19,0,10.19Z"/>
        </g>
      </g>
    </g>
  </g>
</svg>