<?xml version="1.0" encoding="UTF-8"?>
<svg id="Layer_2" data-name="Layer 2" xmlns="http://www.w3.org/2000/svg" viewBox="0 0 103.94 77.72">
  <defs>
    <style>
      .cls-1 {
        fill: #2767fa;
      }

      .cls-1, .cls-2, .cls-3, .cls-4 {
        stroke-width: 0px;
      }

      .cls-2 {
        fill: #d0e0ff;
      }

      .cls-3 {
        fill: #9ebefc;
      }

      .cls-4 {
        fill: #6899fb;
      }
    </style>
  </defs>
  <g id="Layer_1-2" data-name="Layer 1">
    <g>
      <g>
        <path class="cls-2" d="M48.64.04c5.09-.3,9.88,1.27,12.04,5.01,8.06-5.98,21.75-1.95,22.06,7,7.48-.9,15.48,4.19,16.7,9.85,1.94,8.99-7.92,17.36-19.25,18.03q-20.76-.32-41.53-.64c-11.27-.89-20.09-11.43-11.76-18.64.32-.73-.3-2.74,2.16-5.34,2.84-3.01,7.25-3.44,7.96-4.08,1.2-1.07.32-4.88,3.8-8.01,1.81-1.62,5.04-3.01,7.81-3.17Z"/>
        <path class="cls-3" d="M25.02,6.33c5.09-.3,9.88,1.27,12.04,5.01,8.06-5.98,21.75-1.95,22.06,7,7.48-.9,15.48,4.19,16.7,9.85,1.94,8.99-7.92,17.36-19.25,18.03q-20.76-.32-41.53-.64c-11.27-.89-20.09-11.43-11.76-18.64.32-.73-.3-2.74,2.16-5.34,2.84-3.01,7.25-3.44,7.96-4.08,1.2-1.07.32-4.88,3.8-8.01,1.81-1.62,5.04-3.01,7.81-3.17Z"/>
        <path class="cls-4" d="M52.9,10.57c5.09-.3,9.88,1.27,12.04,5.01,8.06-5.98,21.75-1.95,22.06,7,7.48-.9,15.48,4.19,16.7,9.85,1.94,8.99-7.92,17.36-19.25,18.03q-20.76-.32-41.53-.64c-11.27-.89-20.09-11.43-11.76-18.64.32-.73-.3-2.74,2.16-5.34,2.84-3.01,7.25-3.44,7.96-4.08,1.2-1.07.32-4.88,3.8-8.01,1.81-1.62,5.04-3.01,7.81-3.17Z"/>
      </g>
      <path class="cls-1" d="M26.22,50.46s-3.34,7.03,0,7.78c2.9-.74,0-7.78,0-7.78Z"/>
      <path class="cls-1" d="M36.75,62.16s-3.34,7.03,0,7.78c2.9-.74,0-7.78,0-7.78Z"/>
      <path class="cls-1" d="M35.36,51.49s-3.34,7.03,0,7.78c2.9-.74,0-7.78,0-7.78Z"/>
      <path class="cls-1" d="M76.16,51.84s-3.34,7.03,0,7.78c2.9-.74,0-7.78,0-7.78Z"/>
      <path class="cls-1" d="M60.36,58.28s-3.34,7.03,0,7.78c2.9-.74,0-7.78,0-7.78Z"/>
      <path class="cls-1" d="M64.95,66.05s-3.34,7.03,0,7.78c2.9-.74,0-7.78,0-7.78Z"/>
      <path class="cls-1" d="M57.28,69.94s-3.34,7.03,0,7.78c2.9-.74,0-7.78,0-7.78Z"/>
      <path class="cls-1" d="M70.17,60.9s-3.34,7.03,0,7.78c2.9-.74,0-7.78,0-7.78Z"/>
      <path class="cls-1" d="M65.47,51.49s-3.34,7.03,0,7.78c2.9-.74,0-7.78,0-7.78Z"/>
      <path class="cls-1" d="M55.9,51.49s-3.34,7.03,0,7.78c2.9-.74,0-7.78,0-7.78Z"/>
      <path class="cls-1" d="M46.32,54.35s-3.34,7.03,0,7.78c2.9-.74,0-7.78,0-7.78Z"/>
      <path class="cls-1" d="M49.72,64.78s-3.34,7.03,0,7.78c2.9-.74,0-7.78,0-7.78Z"/>
    </g>
  </g>
</svg>