<?xml version="1.0" encoding="UTF-8"?>
<svg id="Layer_2" data-name="Layer 2" xmlns="http://www.w3.org/2000/svg" viewBox="0 0 103.94 66.82">
  <defs>
    <style>
      .cls-1 {
        fill: #d0e0ff;
      }

      .cls-1, .cls-2, .cls-3 {
        stroke-width: 0px;
      }

      .cls-2 {
        fill: #9ebefc;
      }

      .cls-3 {
        fill: #6899fb;
      }
    </style>
  </defs>
  <g id="Layer_1-2" data-name="Layer 1">
    <g>
      <path class="cls-2" d="M26.82,51.39l.54-.82-.84-.25.18-.6.86.35-.06-.9h.74l-.06.9.86-.35.18.6-.83.25.54.82-.53.36-.53-.84-.54.84-.53-.36Z"/>
      <path class="cls-2" d="M70.65,66.46l.54-.82-.84-.25.18-.6.86.35-.06-.9h.74l-.06.9.86-.35.18.6-.83.25.54.82-.53.36-.53-.84-.54.84-.53-.36Z"/>
      <path class="cls-2" d="M77.23,62.09l.54-.82-.84-.25.18-.6.86.35-.06-.9h.74l-.06.9.86-.35.18.6-.83.25.54.82-.53.36-.53-.84-.54.84-.53-.36Z"/>
      <path class="cls-2" d="M82.76,56.51l.54-.82-.84-.25.18-.6.86.35-.06-.9h.74l-.06.9.86-.35.18.6-.83.25.54.82-.53.36-.53-.84-.54.84-.53-.36Z"/>
      <path class="cls-2" d="M48.48,63.88l.54-.82-.84-.25.18-.6.86.35-.06-.9h.74l-.06.9.86-.35.18.6-.83.25.54.82-.53.36-.53-.84-.54.84-.53-.36Z"/>
      <path class="cls-2" d="M61.95,60.8l.54-.82-.84-.25.18-.6.86.35-.06-.9h.74l-.06.9.86-.35.18.6-.83.25.54.82-.53.36-.53-.84-.54.84-.53-.36Z"/>
      <path class="cls-2" d="M71.17,55.22l.54-.82-.84-.25.18-.6.86.35-.06-.9h.74l-.06.9.86-.35.18.6-.83.25.54.82-.53.36-.53-.84-.54.84-.53-.36Z"/>
      <path class="cls-2" d="M45.77,54.79l.54-.82-.84-.25.18-.6.86.35-.06-.9h.74l-.06.9.86-.35.18.6-.83.25.54.82-.53.36-.53-.84-.54.84-.53-.36Z"/>
      <path class="cls-2" d="M54.44,55.22l.54-.82-.84-.25.18-.6.86.35-.06-.9h.74l-.06.9.86-.35.18.6-.83.25.54.82-.53.36-.53-.84-.54.84-.53-.36Z"/>
      <path class="cls-2" d="M25.47,65.17l.54-.82-.84-.25.18-.6.86.35-.06-.9h.74l-.06.9.86-.35.18.6-.83.25.54.82-.53.36-.53-.84-.54.84-.53-.36Z"/>
      <path class="cls-2" d="M31.53,56.51l.54-.82-.84-.25.18-.6.86.35-.06-.9h.74l-.06.9.86-.35.18.6-.83.25.54.82-.53.36-.53-.84-.54.84-.53-.36Z"/>
      <path class="cls-2" d="M40.2,59.51l.54-.82-.84-.25.18-.6.86.35-.06-.9h.74l-.06.9.86-.35.18.6-.83.25.54.82-.53.36-.53-.84-.54.84-.53-.36Z"/>
      <path class="cls-2" d="M20.38,53.93l.54-.82-.84-.25.18-.6.86.35-.06-.9h.74l-.06.9.86-.35.18.6-.83.25.54.82-.53.36-.53-.84-.54.84-.53-.36Z"/>
      <g>
        <path class="cls-1" d="M48.64.04c5.09-.3,9.88,1.27,12.04,5.01,8.06-5.98,21.75-1.95,22.06,7,7.48-.9,15.48,4.19,16.7,9.85,1.94,8.99-7.92,17.36-19.25,18.03q-20.76-.32-41.53-.64c-11.27-.89-20.09-11.43-11.76-18.64.32-.73-.3-2.74,2.16-5.34,2.84-3.01,7.25-3.44,7.96-4.08,1.2-1.07.32-4.88,3.8-8.01,1.81-1.62,5.04-3.01,7.81-3.17Z"/>
        <path class="cls-2" d="M25.02,6.33c5.09-.3,9.88,1.27,12.04,5.01,8.06-5.98,21.75-1.95,22.06,7,7.48-.9,15.48,4.19,16.7,9.85,1.94,8.99-7.92,17.36-19.25,18.03q-20.76-.32-41.53-.64c-11.27-.89-20.09-11.43-11.76-18.64.32-.73-.3-2.74,2.16-5.34,2.84-3.01,7.25-3.44,7.96-4.08,1.2-1.07.32-4.88,3.8-8.01,1.81-1.62,5.04-3.01,7.81-3.17Z"/>
        <path class="cls-3" d="M52.9,10.57c5.09-.3,9.88,1.27,12.04,5.01,8.06-5.98,21.75-1.95,22.06,7,7.48-.9,15.48,4.19,16.7,9.85,1.94,8.99-7.92,17.36-19.25,18.03q-20.76-.32-41.53-.64c-11.27-.89-20.09-11.43-11.76-18.64.32-.73-.3-2.74,2.16-5.34,2.84-3.01,7.25-3.44,7.96-4.08,1.2-1.07.32-4.88,3.8-8.01,1.81-1.62,5.04-3.01,7.81-3.17Z"/>
      </g>
    </g>
  </g>
</svg>